<?xml version="1.0" encoding="utf-8"?>
<!-- Generator: Adobe Illustrator 24.0.0, SVG Export Plug-In . SVG Version: 6.00 Build 0)  -->
<svg version="1.1" id="Capa_1" xmlns="http://www.w3.org/2000/svg" xmlns:xlink="http://www.w3.org/1999/xlink" x="0px" y="0px"
	 viewBox="0 0 100 79.4" style="enable-background:new 0 0 100 79.4;" xml:space="preserve">
<style type="text/css">
	.st0{fill-rule:evenodd;clip-rule:evenodd;}
</style>
<g>
	<path class="st0" d="M58.3,24.3c-1.6-0.9-3.7-0.4-4.7,1.2c-0.9,1.6-0.4,3.7,1.2,4.7c1.6,0.9,3.7,0.4,4.7-1.2
		C60.5,27.3,59.9,25.2,58.3,24.3L58.3,24.3z M47.8,69L44,75.7c-0.5,0.8-1.5,1.1-2.3,0.6c-1.5-0.8-2.9-1.5-4.6-1.6
		c-1.3-0.1-2.4,0-3.7-0.2c-2.1-0.5-4.9-2-6.3-3.7c-0.9-1-1.3-2-2-3c-0.9-1.4-2.2-2.4-3.7-3.2c-0.8-0.5-1.1-1.5-0.6-2.3l3.9-6.7
		l6.2,3.6c-1.3,2.9-0.3,6.4,2.5,8c2.8,1.6,6.3,0.8,8.2-1.8L47.8,69L47.8,69z M59.5,36.4c-0.7-0.4-1.5-0.8-2.2-1.2
		c-3.2,4.5-7.9,12.5-8.9,17.9c-0.4,2,0.9,2.9,2.3,4.1c0.5,0.4,1,0.8,1.5,1.1c0.7,0.5,1,1.4,0.5,2.2l-3.9,6.7l-6.2-3.6
		c1.3-2.9,0.3-6.4-2.5-8c-2.8-1.6-6.3-0.8-8.2,1.8l-6.2-3.6l3.8-6.7c0.4-0.8,1.4-1,2.2-0.7c0.6,0.2,1.1,0.5,1.7,0.7
		c1.7,0.7,3.2,1.3,4.8,0c4.1-3.4,8.9-11.9,11.1-16.7c-0.7-0.4-1.4-0.8-2.1-1.3l5.5-9.6c0.4-0.7,0.7-1.1,1.5-0.7
		c3.7,1.7,7.3,3.8,10.6,6.1c0.7,0.5,0.6,1,0.2,1.7L59.5,36.4L59.5,36.4z M62.9,38.3c-0.4-0.2-0.8-0.5-1.3-0.7L67.8,27
		c0.7-1.2,0.8-2.3-0.5-3.2c-3.4-2.4-9.2-5.8-13-7.5c-1.4-0.7-2.3,0-3,1.2l-6.1,10.6c-0.5-0.3-1-0.6-1.5-0.9c-0.1,0-0.2,0.1-0.2,0.2
		L42,29.1c-0.5,0.6-1.3,0.9-2,0.5l-2.5-1.5c4.5-7.8,9.6-16.6,14.1-24.4C52.1,2.9,53.2,2.7,54,3c8.1,3.2,17.9,8.8,24.7,14.2
		c0.7,0.6,1.1,1.6,0.6,2.4c-4.5,7.8-9.6,16.6-14.1,24.4l-2.5-1.5c-0.7-0.4-0.9-1.2-0.6-2l0.8-2.1C62.9,38.5,62.9,38.4,62.9,38.3z"/>
</g>
</svg>
