<svg xmlns="http://www.w3.org/2000/svg" xmlns:xlink="http://www.w3.org/1999/xlink" version="1.1" x="0px" y="0px" viewBox="0 0 100 125" style="enable-background:new 0 0 100 100;" xml:space="preserve"><path d="M67.6,39.1l2.9,0.8c0.6,0.2,1.1,0.2,1.7,0.2c2.6,0,5-1.7,5.8-4.3l3.6-12.5c0.9-3.2-0.9-6.5-4.1-7.4l-2.9-0.8  c-0.6-0.2-1.1-0.2-1.7-0.2c-2.6,0-5,1.7-5.8,4.3L65.4,25h-9.8l-3.4-3.4c-0.6-0.6-1.4-0.9-2.1-0.9S48.5,21,48,21.6L44.6,25H36  l0.5-1.7c0.9-3.2-0.9-6.5-4.1-7.4l-2.9-0.8c-0.6-0.2-1.1-0.2-1.7-0.2c-2.6,0-5,1.7-5.8,4.3l-3.6,12.5c-0.9,3.2,0.9,6.5,4.1,7.4  l2.9,0.8c0.6,0.2,1.1,0.2,1.7,0.2c2.6,0,5-1.7,5.8-4.3l1.7-5.8h10l3.4,3.4c0,0,0,0,0,0V70H35v-4c0-3.3-2.7-6-6-6h-3  c-3.3,0-6,2.7-6,6v13c0,3.3,2.7,6,6,6h3c3.3,0,6-2.7,6-6v-4h30v4c0,3.3,2.7,6,6,6h3c3.3,0,6-2.7,6-6V66c0-3.3-2.7-6-6-6h-3  c-3.3,0-6,2.7-6,6v4H53V32.6l2.6-2.6H64l-0.5,1.7C62.6,34.9,64.4,38.2,67.6,39.1z M67.3,32.8l3.6-12.5c0.2-0.9,1-1.5,1.9-1.5  c0.2,0,0.4,0,0.6,0.1l2.9,0.8c1.1,0.3,1.7,1.4,1.4,2.5l-3.6,12.5c-0.2,0.9-1,1.5-1.9,1.5c-0.2,0-0.4,0-0.6-0.1l-2.9-0.8  C67.7,35,67,33.8,67.3,32.8z M32.7,22.2l-3.6,12.5c-0.2,0.9-1,1.5-1.9,1.5c-0.2,0-0.4,0-0.6-0.1l-2.9-0.8c-1.1-0.3-1.7-1.4-1.4-2.5  l3.6-12.5c0.2-0.9,1-1.5,1.9-1.5c0.2,0,0.4,0,0.6,0.1l2.9,0.8C32.3,20,33,21.2,32.7,22.2z M50.1,29.8l-2.3-2.3l2.3-2.3l2.3,2.3  L50.1,29.8z"/><text x="0" y="115" fill="#000000" font-size="5px" font-weight="bold" font-family="'Helvetica Neue', Helvetica, Arial-Unicode, Arial, Sans-serif">Created by Mundo</text><text x="0" y="120" fill="#000000" font-size="5px" font-weight="bold" font-family="'Helvetica Neue', Helvetica, Arial-Unicode, Arial, Sans-serif">from the Noun Project</text></svg>