<?xml version="1.0" encoding="utf-8"?>
<!-- Generator: Adobe Illustrator 24.0.0, SVG Export Plug-In . SVG Version: 6.00 Build 0)  -->
<svg version="1.1" id="Capa_1" xmlns="http://www.w3.org/2000/svg" xmlns:xlink="http://www.w3.org/1999/xlink" x="0px" y="0px"
	 viewBox="0 0 100 82.2" style="enable-background:new 0 0 100 82.2;" xml:space="preserve">
<g>
	<circle cx="63" cy="31.1" r="3"/>
	<ellipse cx="63" cy="71.1" rx="3" ry="3"/>
	<ellipse cx="63" cy="11.1" rx="3" ry="3"/>
	<path d="M64.9,46.2c-0.4-2.9-2.9-5.1-5.9-5.1h-3v-34c0-3.3-2.7-6-6-6H40c-3.3,0-6,2.7-6,6v34h-3c-3.3,0-6,2.7-6,6v13
		c0,3.3,2.7,6,6,6h3v9c0,3.3,2.7,6,6,6h10c3.3,0,6-2.7,6-6v-9h3c2.6,0,4.9-1.7,5.7-4c3-0.4,5.3-3.4,5.3-6.5v-4
		C70,48.6,67.8,46.5,64.9,46.2z M38,7.1c0-1.1,0.9-2,2-2h10c1.1,0,2,0.9,2,2v34h-5v-29c0-1.1-0.9-2-2-2s-2,0.9-2,2v29h-5V7.1z
		 M52,75.1c0,1.1-0.9,2-2,2H40c-1.1,0-2-0.9-2-2v-9h5v4c0,1.1,0.9,2,2,2s2-0.9,2-2v-4h5V75.1z M61,50.1v7.3v3.1l-0.1,0.3
		c-0.2,0.6-0.9,1.3-1.9,1.3H31c-1.1,0-2-0.9-2-2v-13c0-1.1,0.9-2,2-2h28c1,0,1.8,0.7,2,1.7V47V50.1z M66,55.6c0,0.7-0.4,1.4-1,1.7
		v-7.2c0.6,0.3,1,0.8,1,1.5V55.6z"/>
</g>
</svg>
