<?xml version="1.0" encoding="utf-8"?>
<!-- Generator: Adobe Illustrator 24.0.0, SVG Export Plug-In . SVG Version: 6.00 Build 0)  -->
<svg version="1.1" id="Capa_1" xmlns="http://www.w3.org/2000/svg" xmlns:xlink="http://www.w3.org/1999/xlink" x="0px" y="0px"
	 viewBox="0 0 100 79.4" style="enable-background:new 0 0 100 79.4;" xml:space="preserve">
<path d="M71,29.2h3c3.3,0,6-2.7,6-6v-13c0-3.3-2.7-6-6-6h-3c-3.3,0-6,2.7-6,6v4h-6.8c-0.1-0.1-0.2-0.2-0.3-0.3l-5-5
	c-0.4-0.4-0.8-0.7-1.3-0.9c-0.7-0.3-1.5-0.4-2.3-0.2c-0.3,0-0.5,0.1-0.7,0.2c-0.5,0.2-0.9,0.5-1.3,0.9l-5,5
	c-0.1,0.1-0.2,0.2-0.3,0.3h-7v-4c0-3.3-2.7-6-6-6h-3c-3.3,0-6,2.7-6,6v13c0,3.3,2.7,6,6,6h3c3.3,0,6-2.7,6-6v-4h7
	c0.1,0.1,0.2,0.2,0.3,0.3l5,5c0.2,0.2,0.5,0.4,0.7,0.6v28.2c-0.3,0.2-0.5,0.3-0.7,0.6l-5,5c-0.1,0.1-0.2,0.2-0.3,0.3h-7v-4
	c0-3.3-2.7-6-6-6h-3c-3.3,0-6,2.7-6,6v13c0,3.3,2.7,6,6,6h3c3.3,0,6-2.7,6-6v-4h7c0.1,0.1,0.2,0.2,0.3,0.3l5,5
	c0.4,0.4,0.8,0.7,1.3,0.9c0.5,0.2,1,0.3,1.5,0.3s1-0.1,1.5-0.3s0.9-0.5,1.3-0.9l5-5c0.1-0.1,0.2-0.2,0.3-0.3H65v4c0,3.3,2.7,6,6,6h3
	c3.3,0,6-2.7,6-6v-13c0-3.3-2.7-6-6-6h-3c-3.3,0-6,2.7-6,6v4h-6.8c-0.1-0.1-0.2-0.2-0.3-0.3L53,54V24.4l4.9-4.9
	c0.1-0.1,0.2-0.2,0.3-0.3H65v4C65,26.5,67.7,29.2,71,29.2z M55.1,61.9l-5,4.9l-5-4.8l5-4.8l0,0L55.1,61.9z M50.1,21.8l-5-4.8l5-4.8
	l0,0l5,4.7L50.1,21.8z"/>
</svg>
