<?xml version="1.0" encoding="utf-8"?>
<!-- Generator: Adobe Illustrator 24.0.0, SVG Export Plug-In . SVG Version: 6.00 Build 0)  -->
<svg version="1.1" id="Capa_1" xmlns="http://www.w3.org/2000/svg" xmlns:xlink="http://www.w3.org/1999/xlink" x="0px" y="0px"
	 viewBox="0 0 100 79.4" style="enable-background:new 0 0 100 79.4;" xml:space="preserve">
<path d="M67.6,28.3l2.9,0.8c3.2,0.9,6.5-0.9,7.4-4.1l3.6-12.5c0.9-3.2-0.9-6.5-4.1-7.4l-2.9-0.8c-3.2-0.9-6.5,0.9-7.4,4.1l-1.7,5.8
	h-9.8l-3.4-3.4c-0.6-0.6-1.4-0.9-2.1-0.9s-1.6,0.3-2.1,0.9l-3.4,3.4H36l0.5-1.7c0.9-3.2-0.9-6.5-4.1-7.4l-2.9-0.8
	c-3.2-0.9-6.5,0.9-7.4,4.1l-3.6,12.5c-0.9,3.2,0.9,6.5,4.1,7.4l2.9,0.8c3.2,0.9,6.5-0.9,7.4-4.1l1.7-5.8h10l3.4,3.4l0,0v36.6H35v-4
	c0-3.3-2.7-6-6-6h-3c-3.3,0-6,2.7-6,6v13c0,3.3,2.7,6,6,6h3c3.3,0,6-2.7,6-6v-4h30v4c0,3.3,2.7,6,6,6h3c3.3,0,6-2.7,6-6v-13
	c0-3.3-2.7-6-6-6h-3c-3.3,0-6,2.7-6,6v4H53V21.8l2.6-2.6H64l-0.5,1.7C62.6,24.1,64.4,27.4,67.6,28.3z M31,68.2c0,1.1-0.9,2-2,2h-3
	c-1.1,0-2-0.9-2-2v-13c0-1.1,0.9-2,2-2h3c1.1,0,2,0.9,2,2V68.2z M69,55.2c0-1.1,0.9-2,2-2h3c1.1,0,2,0.9,2,2v13c0,1.1-0.9,2-2,2h-3
	c-1.1,0-2-0.9-2-2V55.2z M50.1,19l-2.3-2.3l2.3-2.3l2.3,2.3L50.1,19z"/>
</svg>
