<svg xmlns="http://www.w3.org/2000/svg" xmlns:xlink="http://www.w3.org/1999/xlink" version="1.1" x="0px" y="0px" viewBox="0 0 100 125" style="enable-background:new 0 0 100 100;" xml:space="preserve"><g><g><path d="M50,2.9C24,2.9,2.9,24,2.9,50S24,97.1,50,97.1S97.1,76,97.1,50S76,2.9,50,2.9z M73.9,52.3    c0,1.7-1.4,3.1-3.1,3.1H52.3v13.9c0,1.7-1.4,3.1-3.1,3.1c-1.7,0-3.1-1.4-3.1-3.1V55.4H32.2v13.9c0,1.7-1.4,3.1-3.1,3.1    s-3.1-1.4-3.1-3.1V30.7c0-1.7,1.4-3.1,3.1-3.1s3.1,1.4,3.1,3.1v18.5h13.9V30.7c0-1.7,1.4-3.1,3.1-3.1c1.7,0,3.1,1.4,3.1,3.1v18.5    h15.4V30.7c0-1.7,1.4-3.1,3.1-3.1s3.1,1.4,3.1,3.1V52.3z"/></g></g><text x="0" y="115" fill="#000000" font-size="5px" font-weight="bold" font-family="'Helvetica Neue', Helvetica, Arial-Unicode, Arial, Sans-serif">Created by Vaibhav Radhakrishnan</text><text x="0" y="120" fill="#000000" font-size="5px" font-weight="bold" font-family="'Helvetica Neue', Helvetica, Arial-Unicode, Arial, Sans-serif">from the Noun Project</text></svg>