<?xml version="1.0" encoding="utf-8"?>
<!-- Generator: Adobe Illustrator 24.0.0, SVG Export Plug-In . SVG Version: 6.00 Build 0)  -->
<svg version="1.1" id="Capa_1" xmlns="http://www.w3.org/2000/svg" xmlns:xlink="http://www.w3.org/1999/xlink" x="0px" y="0px"
	 viewBox="0 0 100 79.4" style="enable-background:new 0 0 100 79.4;" xml:space="preserve">
<path d="M77.7,46.7v-1.2c0-1.8-1.5-3.3-3.3-3.3H36.9l-3.4-20.4c0-0.1,0-0.3,0-0.4v-14c0-1.5-1.2-2.7-2.7-2.7h-5.7
	c-1.5,0-2.7,1.2-2.7,2.7v14.8c0,0.2,0,0.3,0,0.5l8.4,49.7c0.2,1.3,1.3,2.2,2.7,2.2h39.3c1.2,0,2.3-0.9,2.6-2.1l2.3-9.6
	c0.4-1.7-0.9-3.3-2.6-3.3h-33c-1.3,0-2.4-0.9-2.7-2.2L38.2,50h36.2C76.2,50,77.7,48.5,77.7,46.7z"/>
</svg>
