<?xml version="1.0" encoding="utf-8"?>
<!-- Generator: Adobe Illustrator 24.0.0, SVG Export Plug-In . SVG Version: 6.00 Build 0)  -->
<svg version="1.1" id="Capa_1" xmlns="http://www.w3.org/2000/svg" xmlns:xlink="http://www.w3.org/1999/xlink" x="0px" y="0px"
	 viewBox="0 0 100 79.4" style="enable-background:new 0 0 100 79.4;" xml:space="preserve">
<style type="text/css">
	.st0{fill:#FFFFFF;}
</style>
<g>
	<path d="M70.1,5.2H44.3c-1.6,0-3.1,0.6-4.3,1.8L21.7,25.4C20.6,26.5,20,28,20,29.6v18.2c0,2.8,1.9,5.2,4.6,5.8
		c8.3,1.8,14.9,8.4,16.7,16.8c0.6,2.7,3,4.7,5.8,4.7H70c5.5,0,9.9-4.5,9.9-10V15.2C80,9.7,75.6,5.2,70.1,5.2z"/>
	<path class="st0" d="M66.7,14.2H44c-5.1,5.1-7.9,7.9-13,13v7.5c0,2.2,1.8,4.5,4,4.5h31c3,0,5-2.9,5-6V18.7
		C71,16.2,69.2,14.2,66.7,14.2z"/>
	<path class="st0" d="M65,44.2h-8c-1.1,0-2,0.9-2,2s0.9,2,2,2h8c1.1,0,2-0.9,2-2S66.1,44.2,65,44.2z"/>
</g>
</svg>
